<svg width="52" height="52" viewBox="0 0 52 52" fill="none" xmlns="http://www.w3.org/2000/svg">
<path d="M36.3777 2.53906V7.61719C36.3777 8.45813 35.6965 9.14062 34.8572 9.14062H26C25.1607 9.14062 24.4795 8.45813 24.4795 7.61719L24.8234 2.62702C24.8234 1.78608 25.1608 1.01562 26.0001 1.01562H34.8573C35.6965 1.01562 36.3777 1.69813 36.3777 2.53906Z" fill="#FF4D4D"/>
<path d="M27.5205 1.52344V13.6449H24.4795V1.52344C24.4795 0.6825 25.1607 0 26 0C26.8393 0 27.5205 0.6825 27.5205 1.52344Z" fill="#607882"/>
<path d="M27.5205 1.52344V13.6449H26V0C26.8393 0 27.5205 0.6825 27.5205 1.52344Z" fill="#495959"/>
<path d="M48.8516 28.3055V50.4766C48.8516 51.3175 48.1704 52 47.3311 52H4.66883C3.82952 52 3.14844 51.3175 3.14844 50.4766V28.3055C3.14844 27.4635 3.82962 26.782 4.66893 26.782H47.3312C48.1705 26.782 48.8516 27.4635 48.8516 28.3055Z" fill="#E6ECF2"/>
<path d="M48.8516 28.3055V50.4766C48.8516 51.3175 48.1704 52 47.3311 52H26V26.782H47.3312C48.1705 26.782 48.8516 27.4635 48.8516 28.3055Z" fill="#B9C9D9"/>
<path d="M52 23.1918V27.3406C52 28.1816 51.3188 28.8641 50.4795 28.8641H1.52049C0.68118 28.8641 0 28.1816 0 27.3406V23.1918C0 22.557 0.39325 21.9883 0.986273 21.7659L1.01969 21.7527L25.4668 12.5755C25.8297 12.4381 26.2401 12.4531 26.5514 12.5826L51.0127 21.7648C51.6068 21.9883 52 22.557 52 23.1918Z" fill="#B9C9D9"/>
<path d="M52 23.1918V27.3406C52 28.1816 51.3188 28.8641 50.4795 28.8641H26V12.479C26.1997 12.478 26.3902 12.5155 26.5514 12.5826L51.0127 21.7648C51.6067 21.9883 52 22.557 52 23.1918Z" fill="#8FA7BF"/>
<path d="M29.8285 21.3525C29.8285 23.4779 28.1119 25.2109 25.9923 25.2341H25.9492C23.8099 25.2341 22.07 23.4925 22.07 21.3525C22.07 19.2133 23.8099 17.4709 25.9492 17.4709H25.9923C28.1119 17.4941 29.8285 19.2279 29.8285 21.3525Z" fill="#8FA7BF"/>
<path d="M25.9924 25.2341V17.4709C28.1119 17.4941 29.8286 19.2279 29.8286 21.3525C29.8285 23.4779 28.1119 25.2109 25.9924 25.2341Z" fill="#607882"/>
<path d="M13.7606 35.9223H13.7598C12.077 35.9223 10.7129 37.2864 10.7129 38.9692V52H16.8075V38.9692C16.8075 37.2864 15.4433 35.9223 13.7606 35.9223Z" fill="#8FA7BF"/>
<path d="M38.2402 35.9223H38.2394C36.5566 35.9223 35.1925 37.2864 35.1925 38.9692V52H41.2871V38.9692C41.2871 37.2864 39.9229 35.9223 38.2402 35.9223Z" fill="#607882"/>
<path d="M28.9963 35.8922V52H22.9023V35.8922C22.9023 34.2093 24.2637 32.8453 25.9433 32.8453H25.9555C25.9707 32.8453 25.9859 32.8453 26.0001 32.8463C27.6593 32.8697 28.9963 34.2245 28.9963 35.8922Z" fill="#8FA7BF"/>
<path d="M28.9963 35.8922V52H26V32.8463C27.6593 32.8697 28.9963 34.2245 28.9963 35.8922Z" fill="#607882"/>
</svg>
