<svg width="52" height="52" viewBox="0 0 52 52" fill="none" xmlns="http://www.w3.org/2000/svg">
<path d="M25.7481 1.65344C24.0337 1.69 23.5381 3.55875 22.9247 5.08625C22.3112 6.61375 18.6591 14.9216 16.2947 19.1141C13.9303 23.3066 10.7291 28.7991 11.1841 36.6519C11.6431 44.5047 17.7409 50.3669 26.2844 50.3019C34.0072 50.245 40.7631 45.7925 41.0394 36.1197C41.2669 28.1125 36.8631 21.1941 34.6897 16.9609C33.3978 14.4422 29.1687 6.0125 28.7219 4.96844C27.9216 3.09969 27.5803 1.61281 25.7481 1.65344Z" fill="#4EC1F5"/>
<path d="M19.2481 26.1706C18.0456 26.2234 15.1856 29.9447 15.1856 34.6369C15.1856 39.3291 17.3997 42.7944 19.8169 42.2987C22.62 41.7259 22.1609 38.8659 21.5881 36.5788C21.0966 34.6125 20.3287 32.2887 20.1581 30.1722C20.0525 28.8031 20.5075 26.1138 19.2481 26.1706Z" fill="#B3E2FB"/>
</svg>
