<svg width="52" height="52" viewBox="0 0 52 52" fill="none" xmlns="http://www.w3.org/2000/svg">
<path d="M49.0663 21.1342H15.1384C14.3307 21.1342 13.6759 21.789 13.6759 22.5967V30.7367H3.46013C2.65241 30.7367 1.99763 31.3914 1.99763 32.1992V49.0141C1.99763 49.8218 2.65241 50.4766 3.46013 50.4766H49.0664C49.8741 50.4766 50.5289 49.8218 50.5289 49.0141V22.5967C50.5288 21.789 49.8739 21.1342 49.0663 21.1342Z" fill="#AFC1C9"/>
<path d="M50.653 19.1949H21.8056C21.6116 19.1949 21.4256 19.2719 21.2885 19.4091C21.1514 19.5462 21.0743 19.7322 21.0743 19.9262V21.6517C21.0743 21.8808 21.1653 22.1005 21.3273 22.2625C21.4893 22.4245 21.709 22.5155 21.9381 22.5155H50.5205C50.7496 22.5155 50.9693 22.4245 51.1313 22.2625C51.2933 22.1005 51.3843 21.8808 51.3843 21.6517V19.9262C51.3843 19.7322 51.3072 19.5462 51.1701 19.4091C51.0329 19.2719 50.8469 19.1949 50.653 19.1949Z" fill="#95AAAD"/>
<path d="M1.87332 28.4306H30.7208C30.9148 28.4306 31.1008 28.5076 31.2379 28.6448C31.375 28.7819 31.4521 28.9679 31.4521 29.1618V30.8874C31.4521 31.1165 31.3611 31.3362 31.1991 31.4982C31.0371 31.6602 30.8174 31.7512 30.5883 31.7512H2.00586C1.77677 31.7512 1.55706 31.6602 1.39507 31.4982C1.23308 31.3362 1.14207 31.1165 1.14207 30.8874V29.1618C1.14207 28.9679 1.21912 28.7819 1.35625 28.6448C1.49339 28.5076 1.67939 28.4306 1.87332 28.4306Z" fill="#95AAAD"/>
<path d="M32.1358 3.04717H5.96162C5.53892 3.04717 5.19624 3.45281 5.19624 3.95311V49.5706C5.19624 50.0709 5.53892 50.4766 5.96162 50.4766H32.1358C32.5585 50.4766 32.9012 50.0709 32.9012 49.5706V3.95311C32.9012 3.45281 32.5585 3.04717 32.1358 3.04717Z" fill="#CFDBE2"/>
<path d="M23.8588 11.5312H20.493V8.16542C20.493 7.97148 20.4159 7.78549 20.2788 7.64835C20.1417 7.51122 19.9557 7.43417 19.7617 7.43417H18.3358C18.1418 7.43417 17.9559 7.51122 17.8187 7.64835C17.6816 7.78549 17.6045 7.97148 17.6045 8.16542V11.5312H14.2388C14.0448 11.5312 13.8588 11.6082 13.7217 11.7454C13.5846 11.8825 13.5075 12.0685 13.5075 12.2625V13.6884C13.5075 13.8823 13.5846 14.0683 13.7217 14.2055C13.8588 14.3426 14.0448 14.4196 14.2388 14.4196H17.6045V17.7854C17.6045 17.9794 17.6816 18.1654 17.8187 18.3025C17.9559 18.4396 18.1418 18.5167 18.3358 18.5167H19.7617C19.9557 18.5167 20.1417 18.4396 20.2788 18.3025C20.4159 18.1654 20.493 17.9794 20.493 17.7854V14.4196H23.8588C24.0527 14.4196 24.2387 14.3426 24.3758 14.2055C24.513 14.0683 24.59 13.8823 24.59 13.6884V12.2625C24.59 12.0685 24.513 11.8825 24.3758 11.7454C24.2387 11.6082 24.0527 11.5312 23.8588 11.5312Z" fill="#FF473E"/>
<path d="M47.1141 37.4123H36.371C36.1771 37.4123 35.9911 37.3352 35.854 37.1981C35.7168 37.061 35.6398 36.875 35.6398 36.681V32.3718C35.6398 32.1779 35.7168 31.9919 35.854 31.8548C35.9911 31.7176 36.1771 31.6406 36.371 31.6406H47.1142C47.3082 31.6406 47.4942 31.7176 47.6313 31.8548C47.7684 31.9919 47.8455 32.1779 47.8455 32.3718V36.681C47.8455 36.875 47.7684 37.061 47.6312 37.1981C47.4941 37.3352 47.3081 37.4123 47.1141 37.4123ZM47.9712 45.7371V41.428C47.9712 41.234 47.8942 41.048 47.757 40.9109C47.6199 40.7737 47.4339 40.6967 47.24 40.6967H36.2452C36.0513 40.6967 35.8653 40.7737 35.7281 40.9109C35.591 41.048 35.514 41.234 35.514 41.428V45.7371C35.514 45.9311 35.591 46.1171 35.7281 46.2542C35.8653 46.3914 36.0513 46.4684 36.2452 46.4684H47.24C47.4339 46.4684 47.6199 46.3914 47.757 46.2542C47.8942 46.1171 47.9712 45.9311 47.9712 45.7371ZM47.9712 27.3371V25.9137C47.9712 25.7197 47.8942 25.5337 47.757 25.3966C47.6199 25.2595 47.4339 25.1824 47.24 25.1824H36.2452C36.0513 25.1824 35.8653 25.2595 35.7281 25.3966C35.591 25.5337 35.514 25.7197 35.514 25.9137V27.3371C35.514 27.531 35.591 27.717 35.7281 27.8541C35.8653 27.9913 36.0513 28.0683 36.2452 28.0683H47.24C47.4339 28.0683 47.6199 27.9913 47.757 27.8541C47.8942 27.717 47.9712 27.531 47.9712 27.3371Z" fill="#0096D1"/>
<path d="M10.2419 42.7686H27.8555V50.4766H10.2419V42.7686Z" fill="#2B3B47"/>
<path d="M20.8852 37.4123H17.2584C17.0645 37.4123 16.8785 37.3352 16.7413 37.1981C16.6042 37.061 16.5272 36.875 16.5272 36.681V32.1246C16.5272 31.9307 16.6042 31.7447 16.7413 31.6076C16.8785 31.4704 17.0645 31.3934 17.2584 31.3934H20.8852C21.0792 31.3934 21.2651 31.4704 21.4023 31.6076C21.5394 31.7447 21.6165 31.9307 21.6165 32.1246V36.681C21.6165 36.875 21.5394 37.061 21.4023 37.1981C21.2651 37.3352 21.0792 37.4123 20.8852 37.4123ZM29.5344 36.681V32.1246C29.5344 31.9307 29.4573 31.7447 29.3202 31.6076C29.1831 31.4704 28.9971 31.3934 28.8031 31.3934H25.1763C24.9824 31.3934 24.7964 31.4704 24.6593 31.6076C24.5221 31.7447 24.4451 31.9307 24.4451 32.1246V36.681C24.4451 36.875 24.5221 37.061 24.6593 37.1981C24.7964 37.3352 24.9824 37.4123 25.1763 37.4123H28.8031C28.9971 37.4123 29.1831 37.3352 29.3202 37.1981C29.4573 37.061 29.5344 36.875 29.5344 36.681ZM13.6986 36.681V32.1246C13.6986 31.9307 13.6216 31.7447 13.4845 31.6076C13.3473 31.4704 13.1613 31.3934 12.9674 31.3934H9.3406C9.14666 31.3934 8.96067 31.4704 8.82353 31.6076C8.68639 31.7447 8.60935 31.9307 8.60935 32.1246V36.681C8.60935 36.875 8.68639 37.061 8.82353 37.1981C8.96067 37.3352 9.14666 37.4123 9.3406 37.4123H12.9674C13.1613 37.4123 13.3473 37.3352 13.4845 37.1981C13.6216 37.061 13.6986 36.875 13.6986 36.681ZM11.6904 27.3371V22.7807C11.6904 22.6846 11.6714 22.5896 11.6347 22.5008C11.5979 22.4121 11.5441 22.3315 11.4762 22.2636C11.4083 22.1957 11.3277 22.1418 11.2389 22.1051C11.1502 22.0683 11.0551 22.0494 10.9591 22.0494H9.3406C9.24457 22.0494 9.14948 22.0683 9.06076 22.1051C8.97205 22.1418 8.89143 22.1957 8.82353 22.2636C8.75563 22.3315 8.70176 22.4121 8.66502 22.5008C8.62827 22.5896 8.60935 22.6846 8.60935 22.7807V27.3371C8.60935 27.4331 8.62827 27.5282 8.66502 27.6169C8.70176 27.7056 8.75563 27.7862 8.82353 27.8541C8.89143 27.922 8.97205 27.9759 9.06076 28.0127C9.14948 28.0494 9.24457 28.0683 9.3406 28.0683H10.9591C11.153 28.0683 11.339 27.9913 11.4762 27.8541C11.6133 27.717 11.6904 27.531 11.6904 27.3371ZM17.6384 27.3371V22.7807C17.6384 22.5867 17.5613 22.4007 17.4242 22.2636C17.287 22.1265 17.101 22.0494 16.9071 22.0494H15.2886C15.0947 22.0494 14.9087 22.1265 14.7715 22.2636C14.6344 22.4007 14.5574 22.5867 14.5574 22.7807V27.3371C14.5574 27.531 14.6344 27.717 14.7715 27.8541C14.9087 27.9913 15.0947 28.0683 15.2886 28.0683H16.9071C17.101 28.0683 17.287 27.9913 17.4242 27.8541C17.5613 27.717 17.6384 27.531 17.6384 27.3371ZM23.5864 27.3371V22.7807C23.5864 22.5867 23.5093 22.4007 23.3722 22.2636C23.2351 22.1265 23.0491 22.0494 22.8551 22.0494H21.2366C21.0427 22.0494 20.8567 22.1265 20.7195 22.2636C20.5824 22.4007 20.5054 22.5867 20.5054 22.7807V27.3371C20.5054 27.531 20.5824 27.717 20.7195 27.8541C20.8567 27.9913 21.0427 28.0683 21.2366 28.0683H22.8551C23.0491 28.0683 23.2351 27.9913 23.3722 27.8541C23.5093 27.717 23.5864 27.531 23.5864 27.3371ZM29.5344 27.3371V22.7807C29.5344 22.5867 29.4573 22.4007 29.3202 22.2636C29.1831 22.1265 28.9971 22.0494 28.8031 22.0494H27.1846C26.9907 22.0494 26.8047 22.1265 26.6676 22.2636C26.5304 22.4007 26.4534 22.5867 26.4534 22.7807V27.3371C26.4534 27.531 26.5304 27.717 26.6676 27.8541C26.8047 27.9913 26.9907 28.0683 27.1846 28.0683H28.8031C28.9971 28.0683 29.1831 27.9913 29.3202 27.8541C29.4573 27.717 29.5344 27.531 29.5344 27.3371Z" fill="#00B1FF"/>
<path d="M27.8555 43.5825H10.2419V42.7477C10.2419 42.195 10.69 41.7469 11.2427 41.7469H26.8546C27.4074 41.7469 27.8554 42.195 27.8554 42.7477V43.5825H27.8555Z" fill="#67747C"/>
<path d="M33.4956 2.03754H4.6481C4.45416 2.03754 4.26817 2.11459 4.13103 2.25172C3.9939 2.38886 3.91685 2.57485 3.91685 2.76879V4.49434C3.91685 4.72343 4.00786 4.94314 4.16985 5.10513C4.33184 5.26712 4.55155 5.35813 4.78064 5.35813H33.3631C33.5922 5.35813 33.8119 5.26712 33.9739 5.10513C34.1359 4.94314 34.2269 4.72343 34.2269 4.49434V2.76879C34.2269 2.57485 34.1498 2.38886 34.0127 2.25172C33.8755 2.11459 33.6895 2.03754 33.4956 2.03754Z" fill="#95AAAD"/>
</svg>
