<svg width="52" height="52" viewBox="0 0 52 52" fill="none" xmlns="http://www.w3.org/2000/svg">
<g clip-path="url(#clip0)">
<path d="M29.4612 3.55469C29.692 3.55469 29.8805 3.887 29.8805 4.29487C29.8805 4.70356 29.692 5.03587 29.4612 5.03587H22.9044C22.672 5.03587 22.4811 4.70356 22.4811 4.29487C22.4811 3.887 22.672 3.55469 22.9044 3.55469H29.4612Z" fill="#99999A"/>
<path d="M10.3228 34.1819L11.0411 30.3875L8.92775 30.9562L7.16381 32.2871L5.41288 34.1819H10.3228Z" fill="#992C3D"/>
<path d="M41.9193 34.1819L41.1994 30.3875L43.3144 30.9562L45.0775 32.2871L46.826 34.1819H41.9193Z" fill="#992C3D"/>
<path d="M26.9263 12.3516C26.9199 12.544 26.839 12.7264 26.7006 12.8602C26.5623 12.9941 26.3773 13.0689 26.1848 13.0689C25.9924 13.0689 25.8074 12.9941 25.6691 12.8602C25.5307 12.7264 25.4498 12.544 25.4434 12.3516V0.740186C25.4434 0.543552 25.5216 0.354973 25.6606 0.215932C25.7996 0.0768915 25.9882 -0.0012207 26.1848 -0.0012207C26.3815 -0.0012207 26.5701 0.0768915 26.7091 0.215932C26.8481 0.354973 26.9263 0.543552 26.9263 0.740186V12.3516Z" fill="#99999A"/>
<path d="M42.4044 47.6824C43.5394 47.6824 44.4616 48.0122 44.4616 48.4193C44.4616 48.8312 43.5394 49.1611 42.4044 49.1611H10.1831C9.05125 49.1611 8.1315 48.8312 8.1315 48.4193C8.1315 48.0122 9.05125 47.6824 10.1831 47.6824H42.4044Z" fill="#BBBDBF"/>
<path d="M44.4836 49.1644C45.7787 49.1644 46.826 49.4967 46.826 49.9054C46.826 50.3149 45.7787 50.6456 44.4836 50.6456H7.75044C6.46019 50.6456 5.41125 50.3149 5.41125 49.9054C5.41125 49.4967 6.46019 49.1644 7.75044 49.1644H44.4836Z" fill="#99999A"/>
<path d="M46.8024 50.6431C48.2479 50.6431 49.4146 50.9763 49.4146 51.3833C49.4146 51.792 48.2479 52.1251 46.8024 52.1251H5.86056C4.42244 52.1251 3.25325 51.792 3.25325 51.3833C3.25325 50.9763 4.42244 50.6431 5.86056 50.6431H46.8024Z" fill="#7C7C7D"/>
<path d="M20.5132 34.9107V13.4339L26.1788 9.347L31.85 13.4339V34.9107H20.5132Z" fill="#F79420"/>
<path d="M26.2779 9.5615H26.3835L23.0506 13.5558V21.5711L20.4587 22.945L20.5132 22.2032V12.9472L26.2779 9.5615Z" fill="#CB7829"/>
<path d="M9.633 47.6824V31.408L26.1706 19.4756L42.7326 31.408V47.6824H9.633Z" fill="#F79420"/>
<path d="M26.5306 19.8754L15.6812 31.2163V47.6824H9.633V31.0213L25.7473 19.4764L26.5306 19.8754Z" fill="#CB7829"/>
<path d="M28.3628 20.0501V16.6481C28.3707 16.3568 28.3202 16.0669 28.2142 15.7955C28.1083 15.5241 27.949 15.2766 27.7457 15.0678C27.5425 14.8589 27.2995 14.6929 27.0311 14.5796C26.7626 14.4662 26.4742 14.4079 26.1828 14.4079C25.8914 14.4079 25.603 14.4662 25.3345 14.5796C25.0661 14.6929 24.8231 14.8589 24.6199 15.0678C24.4167 15.2766 24.2574 15.5241 24.1514 15.7955C24.0454 16.0669 23.9949 16.3568 24.0029 16.6481V20.0501H28.3628Z" fill="#633C17"/>
<path d="M26.7182 14.5413C26.5434 14.4953 26.3636 14.4707 26.1828 14.4682C25.8964 14.4681 25.6129 14.5244 25.3483 14.634C25.0837 14.7435 24.8433 14.9042 24.6408 15.1067C24.4384 15.3093 24.2778 15.5497 24.1684 15.8143C24.0589 16.079 24.0027 16.3626 24.0029 16.6489V20.0509H25.0656V16.6481C25.0656 15.6292 25.7676 14.7794 26.7182 14.5413Z" fill="#462A15"/>
<path d="M26.6289 19.1051C26.8897 19.4894 26.7467 20.0379 26.3177 20.3287L5.98894 34.008C5.55831 34.2981 4.99444 34.2209 4.73525 33.8382C4.47444 33.4498 4.61663 32.9022 5.04806 32.6113L25.3768 18.9312C25.8099 18.6404 26.3705 18.7192 26.6305 19.1051" fill="#DE374B"/>
<path d="M25.6392 19.1051C25.3784 19.4894 25.5206 20.0379 25.9504 20.3287L46.2792 34.0088C46.7114 34.2989 47.2696 34.2217 47.5329 33.839C47.7937 33.4506 47.6507 32.903 47.2184 32.6121L26.8897 18.9312C26.4542 18.6404 25.8936 18.7192 25.636 19.1051" fill="#DE374B"/>
<path d="M33.0362 12.8009L26.6866 8.52962C26.5389 8.43485 26.3641 8.39171 26.1893 8.40693C26.0092 8.38844 25.8281 8.4317 25.6758 8.52962L19.3294 12.8009C18.9751 13.0439 18.8727 13.5143 19.1035 13.8556C19.1715 13.9554 19.2631 14.0369 19.3701 14.093C19.477 14.1491 19.5961 14.1781 19.7169 14.1773C19.8763 14.1768 20.0319 14.1287 20.1638 14.0392L26.1828 9.98725L32.2026 14.0392C32.3342 14.1294 32.4902 14.1773 32.6487 14.1773C32.7696 14.1776 32.8888 14.1484 32.9959 14.0923C33.1031 14.0363 33.195 13.955 33.2637 13.8556C33.4929 13.5143 33.3889 13.0447 33.0362 12.8009Z" fill="#DE374B"/>
<path d="M31.4722 47.7262V39.4761C31.4724 38.0736 30.9157 36.7283 29.9245 35.736C28.9333 34.7437 27.5886 34.1856 26.1861 34.1843C25.4911 34.1842 24.8029 34.321 24.1608 34.5869C23.5188 34.8528 22.9354 35.2426 22.4439 35.734C21.9525 36.2254 21.5627 36.8088 21.2968 37.4509C21.0309 38.093 20.8941 38.7812 20.8942 39.4761V47.7262H31.473" fill="#633C17"/>
<path d="M27.885 34.4744C27.3385 34.2854 26.7643 34.1885 26.1861 34.1876C25.4911 34.1875 24.8029 34.3243 24.1608 34.5902C23.5188 34.8561 22.9354 35.2458 22.4439 35.7373C21.9525 36.2287 21.5627 36.8121 21.2968 37.4542C21.0309 38.0962 20.8941 38.7844 20.8942 39.4794V47.7295H24.2954V39.4794C24.295 38.3745 24.6411 37.2973 25.285 36.3994C25.929 35.5016 26.8383 34.8283 27.885 34.4744Z" fill="#462A15"/>
<path d="M39.8288 47.6824V44.2813C39.8288 43.703 39.599 43.1484 39.1901 42.7395C38.7812 42.3306 38.2267 42.1009 37.6484 42.1009C37.0701 42.1009 36.5156 42.3306 36.1067 42.7395C35.6978 43.1484 35.4681 43.703 35.4681 44.2813V47.6824H39.8288Z" fill="#633C17"/>
<path d="M16.9918 47.6824V44.2813C16.9974 43.9914 16.9451 43.7033 16.8381 43.4339C16.731 43.1644 16.5713 42.9191 16.3683 42.7121C16.1653 42.5051 15.923 42.3407 15.6557 42.2285C15.3884 42.1162 15.1014 42.0584 14.8115 42.0584C14.5215 42.0584 14.2345 42.1162 13.9672 42.2285C13.6999 42.3407 13.4577 42.5051 13.2546 42.7121C13.0516 42.9191 12.8919 43.1644 12.7848 43.4339C12.6778 43.7033 12.6255 43.9914 12.6311 44.2813V47.6824H16.9918Z" fill="#633C17"/>
<path d="M15.5269 42.1842C15.1971 42.073 14.8457 42.0419 14.5015 42.0933C14.1574 42.1446 13.8304 42.2771 13.5475 42.4797C13.2646 42.6823 13.0339 42.9492 12.8744 43.2585C12.7149 43.5678 12.6313 43.9105 12.6303 44.2585V47.6816H14.0433V44.2585C14.0433 43.2981 14.664 42.4808 15.5269 42.1842Z" fill="#462A15"/>
<path d="M38.3662 42.1996C38.0365 42.0873 37.6847 42.0553 37.3401 42.1062C36.9955 42.1571 36.668 42.2895 36.3848 42.4923C36.1016 42.6951 35.8708 42.9625 35.7117 43.2724C35.5525 43.5823 35.4696 43.9256 35.4697 44.2739V47.6938H36.8786V44.2739C36.8791 43.8162 37.0229 43.3701 37.2896 42.9981C37.5564 42.6262 37.9329 42.347 38.3662 42.1996Z" fill="#462A15"/>
</g>
<defs>
<clipPath id="clip0">
<rect width="52" height="52" fill="white"/>
</clipPath>
</defs>
</svg>
