<svg width="78" height="78" viewBox="0 0 78 78" fill="none" xmlns="http://www.w3.org/2000/svg">
<path d="M56.1234 15.4952C61.035 16.9345 67.4225 29.0355 67.264 31.6022C67.0995 34.1591 57.6908 28.4724 52.2173 25.7534C46.5904 22.9564 40.8013 21.3952 40.9658 18.8358C41.1255 16.2727 51.2107 14.0595 56.1234 15.4952Z" fill="#059B8C"/>
<path d="M49.3569 19.9071C45.6885 19.9071 42.2029 20.5774 39.0012 21.7876C35.6906 20.5396 32.1811 19.9024 28.6431 19.9071C13.2515 19.9071 0.77269 31.6704 0.77269 46.1845C0.77269 60.6974 17.55 76.0598 32.9428 76.0598H45.0523C60.4476 76.0598 77.2237 60.6986 77.2237 46.1845C77.2261 31.6704 64.7473 19.9071 49.3569 19.9071Z" fill="#ED5A28"/>
<path d="M61.035 45.0681C61.035 59.5798 53.2106 72.4498 37.8178 72.4498C22.4262 72.4498 4.26685 60.6974 4.26685 46.1845C4.26685 31.6704 16.7444 19.907 32.1384 19.907C47.5288 19.907 61.0326 30.554 61.0326 45.0681" fill="#D54830"/>
<path d="M56.5134 46.1845C56.5134 60.6974 48.3356 76.0597 32.9416 76.0597C17.5488 76.0597 0.771469 60.6986 0.771469 46.1845C0.771469 31.6704 13.2503 19.907 28.6418 19.907C44.0322 19.907 56.5134 31.6704 56.5134 46.1845Z" fill="#F16E4A"/>
<path d="M38.2468 5.75251C39.9677 8.05229 41.2328 11.2028 41.5618 14.0498C41.6922 15.2137 42.5709 20.9735 41.5959 21.8644C40.5758 22.7882 38.2785 20.5213 37.5278 17.8462C37.2023 16.6932 34.5053 8.67995 31.5083 6.81648C31.3913 6.74092 30.5346 5.49657 30.6174 5.26745C31.9252 1.62826 36.4321 3.32476 38.2468 5.75617" fill="#875D3B"/>
<path d="M23.6291 14.4434C17.1112 16.352 8.64946 32.3932 8.85787 35.7959C9.07725 39.1865 21.5512 31.6485 28.8052 28.0447C36.2651 24.336 43.9408 22.2666 43.7227 18.8748C43.5057 15.4732 30.1397 12.5422 23.6242 14.4434" fill="#04A399"/>
</svg>
