<svg width="16" height="16" viewBox="0 0 16 16" fill="none" xmlns="http://www.w3.org/2000/svg">
<path d="M10.5116 10.3542L5.64534 5.48799L9.81689 2.01199L13.988 6.1831L10.5116 10.3542Z" fill="#BE1931"/>
<path d="M15.3778 6.18311C15.1953 6.3658 14.9787 6.51074 14.7401 6.60962C14.5016 6.70851 14.246 6.75941 13.9878 6.75941C13.7296 6.75941 13.4739 6.70851 13.2354 6.60962C12.9969 6.51074 12.7802 6.3658 12.5978 6.18311L9.81689 3.40266C9.46258 3.03095 9.26767 2.53543 9.27381 2.02194C9.27994 1.50846 9.48662 1.01773 9.84971 0.654588C10.2128 0.291445 10.7035 0.084682 11.217 0.0784676C11.7305 0.0722532 12.226 0.26708 12.5978 0.62133L15.3778 3.40266C15.5604 3.58521 15.7052 3.80194 15.8041 4.04048C15.9029 4.27902 15.9537 4.53469 15.9537 4.79288C15.9537 5.05108 15.9029 5.30675 15.8041 5.54529C15.7052 5.78383 15.5604 6.00056 15.3778 6.18311Z" fill="#DD2E44"/>
<path d="M6.22222 7.92133C6.22222 7.92133 -0.263561 15.5684 0.0835506 15.9169C0.431106 16.2649 8.07866 9.77777 8.07866 9.77777L6.22222 7.92133Z" fill="#99AAB5"/>
<path d="M11.2067 12.4405C11.0241 12.6232 10.8073 12.7681 10.5687 12.8671C10.3301 12.966 10.0743 13.0169 9.816 13.0169C9.55769 13.0169 9.30192 12.966 9.0633 12.8671C8.82468 12.7681 8.60789 12.6232 8.42533 12.4405L3.55955 7.57378C3.20108 7.20286 3.00269 6.70595 3.00714 6.19014C3.01158 5.67433 3.2185 5.18091 3.58331 4.81622C3.94812 4.45153 4.4416 4.24476 4.95742 4.24049C5.47323 4.23621 5.97008 4.43475 6.34089 4.79334L11.2067 9.65956C11.3893 9.84215 11.5341 10.0589 11.633 10.2975C11.7318 10.5361 11.7827 10.7918 11.7827 11.05C11.7827 11.3082 11.7318 11.5639 11.633 11.8025C11.5341 12.0411 11.3893 12.2579 11.2067 12.4405Z" fill="#DD2E44"/>
</svg>
